<?xml version="1.0" encoding="UTF-8"?>
<svg xmlns="http://www.w3.org/2000/svg" onmouseup="{ if(window.parent.document.onmouseup) window.parent.document.onmouseup(arguments[0]);}" xml:space="preserve" style="enable-background:new 0 0 36 36;" viewBox="0 0 36 36" y="0px" x="0px" id="S_Calendar_18_N_2x" version="1.1" xmlns:xlink="http://www.w3.org/1999/xlink"><style type="text/css">
	.st0{fill:none;}
	.st1{fill:#8B1E41;}
</style><rect data-cppathid="10000" height="36" width="36" class="st0"/><path data-cppathid="10001" d="M34,6h-5V3c0-0.6-0.4-1-1-1h-2c-0.6,0-1,0.4-1,1v3H11V3c0-0.6-0.4-1-1-1H8C7.4,2,7,2.4,7,3v3H2C1.4,6,1,6.4,1,7  v26c0,0.6,0.4,1,1,1h32c0.6,0,1-0.4,1-1V7C35,6.4,34.6,6,34,6z M33,32H3V8h4v1c0,0.6,0.4,1,1,1h2c0.6,0,1-0.4,1-1V8h14v1  c0,0.6,0.4,1,1,1h2c0.6,0,1-0.4,1-1V8h4V32z" class="st1"/><rect data-cppathid="10002" height="4" width="4" class="st1" y="12" x="7"/><rect data-cppathid="10003" height="4" width="4" class="st1" y="12" x="13"/><rect data-cppathid="10004" height="4" width="4" class="st1" y="12" x="19"/><rect data-cppathid="10005" height="4" width="4" class="st1" y="12" x="25"/><rect data-cppathid="10006" height="4" width="4" class="st1" y="18" x="7"/><rect data-cppathid="10007" height="4" width="4" class="st1" y="18" x="13"/><rect data-cppathid="10008" height="4" width="4" class="st1" y="18" x="19"/><rect data-cppathid="10009" height="4" width="4" class="st1" y="18" x="25"/><rect data-cppathid="10010" height="4" width="4" class="st1" y="24" x="7"/><rect data-cppathid="10011" height="4" width="4" class="st1" y="24" x="13"/><rect data-cppathid="10012" height="4" width="4" class="st1" y="24" x="19"/><rect data-cppathid="10013" height="4" width="4" class="st1" y="24" x="25"/></svg>